<svg width="67" height="77" viewBox="0 0 67 77" fill="none" xmlns="http://www.w3.org/2000/svg">
<path d="M31.3492 21.6642L32.4425 19.7344C19.8901 13.7859 8.93786 11.9858 7.11462 15.0826C5.26251 18.2285 12.2364 26.8489 24.0025 34.6322L25.4885 32.0092C15.9229 25.9506 9.68178 19.9982 11.2105 17.4016C12.7303 14.8202 21.2306 16.7425 31.3492 21.6642Z" fill="#0099FF"/>
<path d="M30.782 35.1767C28.9319 34.1292 27.1595 33.0676 25.4885 32.0092L24.0025 34.6322C25.719 35.7676 27.5374 36.8852 29.4453 37.9654C32.8285 39.8809 36.0487 41.4741 39.032 42.753L40.4125 40.3163C37.2848 38.761 34.0018 36.9997 30.782 35.1767Z" fill="#0099FF"/>
<path d="M56.4331 41.3818L54.2967 40.4568L58.8254 44.3597L63.2961 44.8826L61.6201 44.2509L61.6126 44.2052C61.0379 40.8282 55.5962 34.5215 47.1583 28.409L46.0258 30.408C51.8509 34.6342 55.7559 38.6753 56.4058 41.2653L56.4331 41.3818Z" fill="#0099FF"/>
<path d="M39.032 42.753C48.7242 46.9078 55.9174 47.7444 58.0843 45.5315C56.2617 47.2466 48.9104 44.5421 40.4125 40.3163L39.032 42.753Z" fill="#0099FF"/>
<path d="M56.0944 77L67 57.75H30.5358L39.032 42.753C36.0487 41.4741 32.8285 39.8809 29.4453 37.9654C27.5374 36.8852 25.719 35.7676 24.0025 34.6322L21.8113 38.5L10.9057 57.75L0 77H19.6302H39.2603H56.0944Z" fill="url(#paint0_linear_506_169)"/>
<path d="M63.2528 0H43.6226L32.4425 19.7344L31.3492 21.6642L25.4885 32.0092C27.1595 33.0676 28.9319 34.1292 30.782 35.1767C34.0018 36.9997 37.2848 38.761 40.4125 40.3163L46.0258 30.408L47.1583 28.409L63.2528 0Z" fill="url(#paint1_linear_506_169)"/>
<defs>
<linearGradient id="paint0_linear_506_169" x1="-2.55983" y1="38.5085" x2="69.0676" y2="38.5085" gradientUnits="userSpaceOnUse">
<stop stop-color="#5C5C5C"/>
<stop offset="0.176" stop-color="#545454"/>
<stop offset="0.458" stop-color="#3D3D3D"/>
<stop offset="0.806" stop-color="#171717"/>
<stop offset="0.995"/>
</linearGradient>
<linearGradient id="paint1_linear_506_169" x1="-0.0141567" y1="38.485" x2="67.0578" y2="38.485" gradientUnits="userSpaceOnUse">
<stop offset="0.005"/>
<stop offset="0.194" stop-color="#171717"/>
<stop offset="0.542" stop-color="#3D3D3D"/>
<stop offset="0.824" stop-color="#545454"/>
<stop offset="1" stop-color="#5C5C5C"/>
</linearGradient>
</defs>
</svg>
